<svg width="26" height="22" viewBox="0 0 26 22" fill="none" xmlns="http://www.w3.org/2000/svg">
<path fill-rule="evenodd" clip-rule="evenodd" d="M22.5555 21.136H2.83496V18.1901C2.93843 14.7603 5.91824 12.151 7.71855 9.18409V6.57487H10.7191V8.44762H14.7542V6.57487H17.7547V9.18409C19.6999 12.3615 22.5555 14.4236 22.5555 18.148V21.136ZM25.3491 9.18409C25.3491 8.72116 25.4319 8.25824 25.3698 7.75323C23.1556 8.4897 21.0036 8.27928 18.8929 7.10092C18.8101 7.90052 18.9342 8.61595 19.2239 9.2893C19.9689 10.9727 25.287 11.5408 25.3491 9.18409ZM0.0620795 9.18409C0.0620795 8.72116 -0.0206932 8.25824 0.0413863 7.75323C2.25555 8.4897 4.40764 8.27928 6.51834 7.10092C6.60112 7.90052 6.47696 8.61595 6.18725 9.2893C5.4423 10.9727 0.103466 11.5408 0.0620795 9.18409ZM0 7.03779C1.77961 -1.40011 23.8799 -2.41013 25.4319 7.05883C23.2798 7.66906 21.0863 7.31134 18.8929 6.30132C18.9549 5.85943 18.8515 5.50172 18.6238 5.20713C17.3202 3.5448 7.98756 3.48167 6.78736 5.27025C6.60112 5.5438 6.51834 5.88047 6.53904 6.25923C4.36626 7.60593 2.17278 7.92156 0 7.03779ZM9.76717 10.3625C10.2638 10.3625 10.657 10.7623 10.657 11.2673C10.657 11.7723 10.2638 12.1721 9.76717 12.1721C9.27053 12.1721 8.87736 11.7723 8.87736 11.2673C8.89806 10.7833 9.29123 10.3625 9.76717 10.3625ZM15.4785 15.4126C15.9751 15.4126 16.3683 15.8124 16.3683 16.3174C16.3683 16.8224 15.9751 17.2222 15.4785 17.2222C14.9818 17.2222 14.5887 16.8224 14.5887 16.3174C14.5887 15.8334 14.9818 15.4126 15.4785 15.4126ZM12.6228 15.4126C13.1195 15.4126 13.5126 15.8124 13.5126 16.3174C13.5126 16.8224 13.1195 17.2222 12.6228 17.2222C12.1262 17.2222 11.733 16.8224 11.733 16.3174C11.733 15.8334 12.1262 15.4126 12.6228 15.4126ZM9.76717 15.4126C10.2638 15.4126 10.657 15.8124 10.657 16.3174C10.657 16.8224 10.2638 17.2222 9.76717 17.2222C9.27053 17.2222 8.87736 16.8224 8.87736 16.3174C8.89806 15.8334 9.29123 15.4126 9.76717 15.4126ZM15.4785 12.8875C15.9751 12.8875 16.3683 13.2873 16.3683 13.7923C16.3683 14.2973 15.9751 14.6971 15.4785 14.6971C14.9818 14.6971 14.5887 14.2973 14.5887 13.7923C14.5887 13.3084 14.9818 12.8875 15.4785 12.8875ZM12.6228 12.8875C13.1195 12.8875 13.5126 13.2873 13.5126 13.7923C13.5126 14.2973 13.1195 14.6971 12.6228 14.6971C12.1262 14.6971 11.733 14.2973 11.733 13.7923C11.733 13.3084 12.1262 12.8875 12.6228 12.8875ZM9.76717 12.8875C10.2638 12.8875 10.657 13.2873 10.657 13.7923C10.657 14.2973 10.2638 14.6971 9.76717 14.6971C9.27053 14.6971 8.87736 14.2973 8.87736 13.7923C8.89806 13.3084 9.29123 12.8875 9.76717 12.8875ZM15.4785 10.3625C15.9751 10.3625 16.3683 10.7623 16.3683 11.2673C16.3683 11.7723 15.9751 12.1721 15.4785 12.1721C14.9818 12.1721 14.5887 11.7723 14.5887 11.2673C14.5887 10.7833 14.9818 10.3625 15.4785 10.3625ZM12.6228 10.3625C13.1195 10.3625 13.5126 10.7623 13.5126 11.2673C13.5126 11.7723 13.1195 12.1721 12.6228 12.1721C12.1262 12.1721 11.733 11.7723 11.733 11.2673C11.733 10.7833 12.1262 10.3625 12.6228 10.3625Z" fill="#222222"/>
</svg>
